<svg width="512" height="512" viewBox="0 0 512 512" fill="none" xmlns="http://www.w3.org/2000/svg">
<path d="M139.686 454.096C118.592 454.096 99.0612 447.404 83.0996 436.029C42.3374 407.25 29.5225 351.605 54.96 307.546L165.363 116.322C173.375 97.6168 187.28 81.2482 206.259 70.291C221.78 61.33 238.738 57.1167 255.454 57.1992C272.17 57.1167 289.129 61.3301 304.649 70.291C323.629 81.2489 337.535 97.6185 345.547 116.325L450.087 297.393C462.581 313.796 470 334.274 470 356.484C470 409.972 426.978 453.413 373.65 454.088L372.389 454.096L139.686 454.096ZM329.558 197.382C343.38 173.441 344.249 145.576 334.341 121.902L328.776 112.266C313.107 85.1263 284.75 69.8816 255.523 69.6963C226.248 69.8342 197.826 85.0834 182.132 112.266L176.568 121.903C166.66 145.577 167.528 173.441 181.351 197.382L216.853 258.874L294.056 258.874L329.558 197.382ZM353.47 155.036C353.45 171.164 349.43 187.499 341.002 202.533L340.378 203.629L308.482 258.874L372.389 258.874L373.65 258.882C390.813 259.099 406.908 263.747 420.845 271.732L353.47 155.036ZM89.4639 272.771C104.137 263.95 121.318 258.874 139.686 258.874L202.426 258.874L170.53 203.629L169.906 202.533C161.478 187.499 157.458 171.164 157.439 155.036L89.4639 272.771ZM286.842 271.368L224.066 271.368L255.454 325.733L286.842 271.368ZM96.9346 430.064C137.645 453.568 189.702 439.62 213.206 398.909L248.241 338.228L209.64 271.368L139.686 271.368C92.6772 271.368 54.5696 309.476 54.5693 356.484C54.5693 385.233 68.8226 410.652 90.6475 426.062C92.666 427.473 94.762 428.81 96.9346 430.064ZM297.702 398.909C321.206 439.62 373.263 453.568 413.974 430.063C454.684 406.559 468.632 354.503 445.128 313.793L439.684 304.362C424.113 284.289 399.76 271.368 372.389 271.368L301.269 271.368L262.668 338.228L297.702 398.909ZM323.848 441.602C308.948 433.306 296.029 420.999 286.882 405.156L255.455 350.722L224.026 405.156C214.879 420.999 201.961 433.306 187.061 441.602L323.848 441.602Z" fill="black"/>
</svg>
